# xmcd
#
# Track frame offsets:
#	150
#	1924
#	19910
#	38540
#	57190
#	75596
#	95039
#	113747
#	128001
#	142130
#	162025
#	175457
#	194378
#	212107
#	232058
#	249467
#
# Disc length: 3714 seconds
#
# Revision: 0
# Processed by: cddbd v1.4PL0 Copyright (c) Steve Scherf et al.
# Submitted via: dBpowerAMP V4.0
#
DISCID=d50e8010
DTITLE=Randi Driscoll - The Play
DYEAR=2002
DGENRE=Country
TTITLE0=Intro
TTITLE1=Let me be your angel
TTITLE2=Beautiful Disaster
TTITLE3=Letting in the Rain
TTITLE4=Shine
TTITLE5=Saving Grace
TTITLE6=Breathe
TTITLE7=Tell Me
TTITLE8=Happy
TTITLE9=The War
TTITLE10=Be Easy on Me
TTITLE11=The Play
TTITLE12=My Turn
TTITLE13=Her Own Sweet Voice (Breathe reprise)
TTITLE14=Fall Away
TTITLE15=Amazing Grace/What Matters
EXTD=
EXTT0=
EXTT1=
EXTT2=
EXTT3=
EXTT4=
EXTT5=
EXTT6=
EXTT7=
EXTT8=
EXTT9=
EXTT10=
EXTT11=
EXTT12=
EXTT13=
EXTT14=
EXTT15=
PLAYORDER=
